<!-- Generated by IcoMoon.io -->
<svg version="1.1" xmlns="http://www.w3.org/2000/svg" width="32" height="32" viewBox="0 0 32 32">
<title>contacts</title>
<path d="M22.688 22.688v-2c0-2.25-4.438-3.375-6.688-3.375s-6.688 1.125-6.688 3.375v2h13.375zM16 9c-1.625 0-3 1.375-3 3s1.375 3 3 3 3-1.375 3-3-1.375-3-3-3zM26.688 5.313c1.438 0 2.625 1.25 2.625 2.688v16c0 1.438-1.188 2.688-2.625 2.688h-21.375c-1.438 0-2.625-1.25-2.625-2.688v-16c0-1.438 1.188-2.688 2.625-2.688h21.375zM5.313 32v-2.688h21.375v2.688h-21.375zM26.688 0v2.688h-21.375v-2.688h21.375z"></path>
</svg>
