<!-- Generated by IcoMoon.io -->
<svg version="1.1" xmlns="http://www.w3.org/2000/svg" width="32" height="32" viewBox="0 0 32 32">
<title>copyright</title>
<path d="M16 26.688c5.875 0 10.688-4.813 10.688-10.688s-4.813-10.688-10.688-10.688-10.688 4.813-10.688 10.688 4.813 10.688 10.688 10.688zM16 2.688c7.375 0 13.313 5.938 13.313 13.313s-5.938 13.313-13.313 13.313-13.313-5.938-13.313-13.313 5.938-13.313 13.313-13.313zM15.813 12.188c-1.923 0-2.5 1.702-2.5 3.625v0.375c0 1.923 0.578 3.625 2.5 3.625 1.174 0 2.188-0.716 2.188-1.875h2.375c0 1.22-0.661 2.138-1.375 2.75-0.806 0.691-1.744 1.125-3.188 1.125-3.412 0-5.125-2.255-5.125-5.625v-0.375c0-1.616 0.454-3.090 1.25-4 0.825-0.943 2.146-1.688 3.875-1.688 1.384 0 2.539 0.477 3.25 1.188 0.688 0.688 1.313 1.749 1.313 3.063h-2.375c0-0.313-0.063-0.563-0.188-0.813s-0.25-0.563-0.438-0.75c-0.339-0.339-0.917-0.625-1.563-0.625z"></path>
</svg>
