<!-- Generated by IcoMoon.io -->
<svg version="1.1" xmlns="http://www.w3.org/2000/svg" width="32" height="32" viewBox="0 0 32 32">
<title>extension</title>
<path d="M27.313 14.688c1.813 0 3.375 1.5 3.375 3.313s-1.563 3.313-3.375 3.313h-2v5.375c0 1.438-1.188 2.625-2.625 2.625h-5.063v-2c0-2-1.625-3.563-3.625-3.563s-3.625 1.563-3.625 3.563v2h-5.063c-1.438 0-2.625-1.188-2.625-2.625v-5.063h2c2 0 3.563-1.625 3.563-3.625s-1.563-3.625-3.563-3.625h-2v-5.063c0-1.438 1.188-2.625 2.625-2.625h5.375v-2c0-1.813 1.5-3.375 3.313-3.375s3.313 1.563 3.313 3.375v2h5.375c1.438 0 2.625 1.188 2.625 2.625v5.375h2z"></path>
</svg>
