<!-- Generated by IcoMoon.io -->
<svg version="1.1" xmlns="http://www.w3.org/2000/svg" width="32" height="32" viewBox="0 0 32 32">
<title>phone2</title>
<path d="M8.813 14.375c1.938 3.75 5.063 6.875 8.813 8.813l2.938-2.938c0.375-0.375 0.938-0.5 1.375-0.313 1.5 0.5 3.125 0.75 4.75 0.75 0.75 0 1.313 0.563 1.313 1.313v4.688c0 0.75-0.563 1.313-1.313 1.313-12.5 0-22.688-10.188-22.688-22.688 0-0.75 0.563-1.313 1.313-1.313h4.688c0.75 0 1.313 0.563 1.313 1.313 0 1.688 0.25 3.25 0.75 4.75 0.125 0.438 0.063 1-0.313 1.375z"></path>
</svg>
